<svg width="1600" height="2000" viewBox="0 0 1600 2000" fill="none" xmlns="http://www.w3.org/2000/svg">
  <rect width="1600" height="2000" fill="#140D14"/>
  <g filter="url(#blurA)">
    <ellipse cx="1130" cy="1540" rx="420" ry="460" fill="#EA8F62" fill-opacity="0.42"/>
    <ellipse cx="620" cy="720" rx="540" ry="760" fill="#6B325D" fill-opacity="0.52"/>
  </g>
  <path d="M540 1560C660 1310 770 1170 868 1148C952 1128 1048 1232 1162 1454" stroke="url(#gradA)" stroke-width="68" stroke-linecap="round"/>
  <path d="M632 1516C710 1388 780 1320 850 1306C920 1292 996 1364 1090 1496" stroke="rgba(255,255,255,0.52)" stroke-width="12" stroke-linecap="round"/>
  <rect x="706" y="566" width="180" height="804" rx="8" fill="url(#pillar)" stroke="rgba(255,255,255,0.18)"/>
  <ellipse cx="796" cy="420" rx="182" ry="110" fill="rgba(255,238,211,0.22)"/>
  <defs>
    <filter id="blurA" x="0" y="0" width="1600" height="2000" filterUnits="userSpaceOnUse" color-interpolation-filters="sRGB">
      <feGaussianBlur stdDeviation="130"/>
    </filter>
    <linearGradient id="gradA" x1="580" y1="1506" x2="1136" y2="1184" gradientUnits="userSpaceOnUse">
      <stop stop-color="#D85C54"/>
      <stop offset="1" stop-color="#F6C28A"/>
    </linearGradient>
    <linearGradient id="pillar" x1="796" y1="566" x2="796" y2="1370" gradientUnits="userSpaceOnUse">
      <stop stop-color="rgba(255,255,255,0.22)"/>
      <stop offset="1" stop-color="rgba(255,255,255,0.04)"/>
    </linearGradient>
  </defs>
</svg>
